<svg xmlns="http://www.w3.org/2000/svg" viewBox="0 0 1600 900"><defs><linearGradient id="g" x1="0" x2="1"><stop stop-color="#171717"/><stop offset="1" stop-color="#78350f"/></linearGradient><filter id="glow"><feGaussianBlur stdDeviation="8" result="b"/><feMerge><feMergeNode in="b"/><feMergeNode in="SourceGraphic"/></feMerge></filter></defs><rect width="1600" height="900" fill="url(#g)"/><rect x="820" y="160" width="520" height="520" rx="28" fill="#f8fafc" opacity=".96"/><rect x="870" y="215" width="420" height="75" rx="12" fill="#111827"/><g fill="#f59e0b" filter="url(#glow)"><rect x="880" y="340" width="85" height="120" rx="10"/><rect x="1000" y="340" width="85" height="120" rx="10"/><rect x="1120" y="340" width="85" height="120" rx="10"/></g><g stroke="#111827" stroke-width="15" stroke-linecap="round"><path d="M900 545 C980 470 1100 635 1270 520"/><path d="M900 595 C1010 520 1090 690 1270 585"/><path d="M900 640 C1000 610 1120 690 1270 650"/></g><path d="M210 680 L530 130 L850 680 Z" fill="#f59e0b" opacity=".92"/><path d="M550 230 L460 440 H570 L470 650 L700 365 H570 Z" fill="#111827"/><text x="90" y="790" fill="#fef3c7" font-family="Arial" font-size="34" font-weight="700" opacity=".5">CONSUMER UNITS • TESTING • FAULT FINDING</text></svg>