<svg xmlns="http://www.w3.org/2000/svg" viewBox="0 0 1600 900"><defs><linearGradient id="g" x1="0" x2="1"><stop stop-color="#0f172a"/><stop offset="1" stop-color="#0f766e"/></linearGradient></defs><rect width="1600" height="900" fill="url(#g)"/><rect x="130" y="190" width="530" height="500" rx="18" fill="#f8fafc" opacity=".94"/><rect x="760" y="190" width="620" height="500" rx="18" fill="#f8fafc" opacity=".94"/><g fill="#0f766e" opacity=".9"><rect x="180" y="260" width="420" height="42" rx="21"/><rect x="180" y="350" width="360" height="42" rx="21"/><rect x="180" y="440" width="460" height="42" rx="21"/><rect x="180" y="530" width="300" height="42" rx="21"/></g><g stroke="#b45309" stroke-width="28" fill="none" stroke-linecap="round"><path d="M850 285 H1240 Q1320 285 1320 365 V425"/><path d="M850 415 H1120 Q1210 415 1210 505 V610"/><path d="M850 550 H1030"/></g><g fill="#64748b"><circle cx="850" cy="285" r="36"/><circle cx="850" cy="415" r="36"/><circle cx="850" cy="550" r="36"/><rect x="1265" y="425" width="110" height="55" rx="12"/><rect x="1155" y="610" width="110" height="55" rx="12"/></g><text x="90" y="790" fill="#ccfbf1" font-family="Arial" font-size="34" font-weight="700" opacity=".55">TRADE COUNTER • HEATING PARTS • PLUMBING SUPPLIES</text></svg>